<?xml version="1.0" encoding="UTF-8" standalone="no"?>
<!DOCTYPE svg PUBLIC "-//W3C//DTD SVG 1.1//EN" "http://www.w3.org/Graphics/SVG/1.1/DTD/svg11.dtd">
<svg width="100%" height="100%" viewBox="0 0 365 1000" version="1.1" xmlns="http://www.w3.org/2000/svg" xmlns:xlink="http://www.w3.org/1999/xlink" xml:space="preserve" xmlns:serif="http://www.serif.com/" style="fill-rule:evenodd;clip-rule:evenodd;stroke-linejoin:round;stroke-miterlimit:2;">
    <rect id="right" x="0" y="0" width="365" height="1000" style="fill:none;"/>
    <clipPath id="_clip1">
        <rect id="right1" serif:id="right" x="0" y="0" width="365" height="1000"/>
    </clipPath>
    <g clip-path="url(#_clip1)">
        <path d="M116.7,297C116.833,296.467 116.9,295.8 116.9,295C117,289.3 114.9,277.7 117.3,261.2C119.3,247.7 123.1,238.4 125.7,231.1C127.3,226.5 128.4,222.7 128,219.1C127.4,213.8 124.5,209.3 121.5,204.1C118.3,198.6 114.9,192.3 113.4,183.5C111.1,169.8 114,165.9 112.9,156.6C112.5,153.5 112,151.2 110.5,149.3C108.2,146.4 103.7,144.8 94.8,143.3C87.7,142.1 70.5,135.2 64.7,129.6C61,125.9 58.5,119.3 56.9,111.4C53.4,93.6 54.5,69.2 54.5,59.2C54.4,5.4 112.7,-16.5 149,13.5C159.8,22.4 165.4,40.9 168.5,47C173.3,56.4 176.5,64.9 176.7,73.8C176.8,76.2 175.9,79.4 174.5,82.8C172.7,87.6 170,92.7 168.5,96.1C166,101.7 154,123.6 150.7,131.6C148.1,138.1 146.2,148.2 145.5,166.4C145,181.2 149.6,187.6 153.6,193.6C156.5,197.9 159,202.1 159.5,208.7C160.2,220.2 156.2,231.6 151.9,242.6C147.8,253.2 143.4,263.2 143.3,272.3C143.1,280.1 144.5,290 146.6,294.8C146.933,295.467 147.267,296.033 147.6,296.5C147.6,296.567 147.667,296.6 147.8,296.6C147.8,296.4 147.9,296.1 147.9,295.9C148.1,294.8 148.2,293.2 148.2,291.3C148.2,281.8 146.8,264.5 150.2,249.9C153.3,236.5 166.9,224 173,221.2C186.1,215 198.5,219.3 205.5,223.5C212,227.3 222,233 225,251.1C227.8,267.8 226.5,286.7 225.8,297.7C225.7,300.5 225.6,302.7 225.6,304.3C225.6,305.1 225.6,305.7 225.7,306.1C225.833,306.367 225.967,306.567 226.1,306.7C226.2,306.8 226.2,306.9 226.3,306.9C226.7,307 227,306.7 227.3,306.4C229.4,304.4 231.3,299.6 230.6,294.2C229.6,285.6 227.7,276.3 229.5,266.7C232.7,250.5 240.1,246 247.7,244.8C250,244.4 251.6,242.7 252.9,239.9C254.4,236.7 255.3,232.2 256,226.5C256.5,223.1 257.8,217 257.6,211.6C257.6,208.3 257,205.3 255.2,203.6C246.8,195.5 224.1,173.6 197,145.1C193.3,141.2 190.1,130.1 189.5,125.8C188.8,121 188.5,114.9 189.7,109.5C190.5,105.7 192.1,102.2 194.7,99.7C200,94.4 209.8,93.1 216.9,92.3C223.4,91.5 235.7,94.6 241,99.7C250.6,108.8 282.2,140.5 295.8,153.6C304.4,161.9 309.6,168.2 312.5,173.3C317.2,181.4 316.4,186.5 314.3,190.9C314,191.4 313.8,192.6 313.6,194C313,197.7 312.5,203.4 311.6,207.7C311,210.7 310.2,213.1 309.2,214C307.8,215.3 305.9,215.8 303.8,215.9C301.2,216 298.3,215.6 296,216.3C292,217.5 289.1,217.7 286.8,219.7C285.1,221.1 283.9,223.3 282.6,227.4C281.3,231.8 280.1,238.2 278.8,247.5C276.3,265.4 264,267.8 255.7,271.5C253.6,272.5 253.4,274.6 253.7,277.2C254.1,282.2 256.4,288.7 256.3,294.1C256.1,299.6 254.3,304.8 252.3,309.9C250.4,314.7 248.5,319.3 248.2,323.7C248,327.9 249.1,330.5 250.2,333.1C251.6,336.1 253,339 253.2,343.4C253.6,350.9 254.2,357.5 254.8,362.4C254.8,361.8 254.767,361.2 254.7,360.6C254.1,348.7 251.9,329.7 253.6,313.4C256,290.7 274.4,275 278.8,272.4C281.7,270.7 289.7,262.9 296.3,258.2C299.5,256 302.4,254.5 304.4,254.3C308.9,253.9 312.8,255.6 316.7,258.4C322,262.2 327.4,268.1 335,272.4C347.5,279.6 363.4,292.8 364,319.8C364.3,338.4 366,355.5 362.1,368.4C356.8,386.1 344.5,396.9 336.1,402C333.4,403.6 317.8,408.4 306.1,407.1C297.2,406.2 290.4,403.7 285.5,402.4C283.9,402 282.6,401.7 281.5,401.6C280.6,401.5 279.8,401.6 279.2,402C278.8,402.2 278.4,402.5 278.1,402.8C278.233,402.8 278.333,402.833 278.4,402.9C279.067,403.167 279.9,403.433 280.9,403.7C287.4,405.4 299.9,407.3 309,414C327.7,427.7 335.2,450.9 335.7,462.5C336.5,480.3 333.5,489.5 330.5,496.9C328.5,501.7 326.6,505.7 325.8,510.8C325.5,513.2 326.8,516.2 328.2,519.8C330.6,525.9 333.6,533.3 332.6,541.2C331.9,546.5 329.6,551.8 327.3,556.6C325.1,561.1 322.8,565.2 322.1,568.3C320.9,574 321.9,576.3 323.2,579C325.4,583.5 328.5,588.6 324.8,607.9C322,622.9 316.2,661.1 313.8,676.8C311.3,692.9 306.7,700.4 301.9,703.7C296.9,707.2 291.6,706.5 287.6,706C286.4,705.9 285.4,705.8 284.5,705.9C284.1,705.9 283.8,706 283.5,706.2C283.3,706.4 283.2,706.8 283.1,707.2C281.9,714.6 283.8,721.6 285.4,729.1C287.2,736.9 288.7,745 286.5,754.2C284.3,762.9 280.9,768.5 277.6,773.7C274.4,778.8 271.3,783.5 269.5,790.7C269.3,791.5 269.4,792.6 269.6,793.8C269.9,795.9 270.7,798.4 271.4,801.2C273.3,808.7 275,818.4 269.4,829.4C265.7,836.6 261.6,845 256.2,852.2C250.6,859.5 243.5,865.5 234,867.6C230.1,868.4 226.8,868.4 224.2,868.6C222.7,868.8 221.5,869 220.7,869.8C219.9,870.6 219.6,872.1 219.7,874.4C219.9,887.3 224.7,891.9 224.6,913.7C224.6,937.5 221.2,951.6 215.6,961C210,970.5 202.2,975.2 193.3,980.2C188.7,982.7 181.9,989.1 175.5,993.9C170.8,997.3 166.3,999.7 162.7,999.7C158.7,999.7 153.3,996.5 147.9,992.3C140.2,986.3 132.2,978.3 127.5,975.4C111,965.3 103.2,944.6 103.5,912.8C103.8,887.6 113.8,870.8 127.1,859.8L126.8,859.8C118.9,859.6 101.7,859.8 90.8,858.1C87.8,857.6 85.3,857.1 83.5,856.3C82.1,855.7 81,855 80.4,854.3C78.4,851.7 77.1,847.5 76.5,842.5C75.5,835.4 75.8,826.6 76.9,818.9C77.7,813.7 78.8,809.1 80.1,805.7C81.1,803.2 82.2,801.4 83.4,800.4C84.5,799.5 86.6,798.8 89.4,798.2C93.4,797.4 98.9,796.9 105.4,796.6C130.4,795.7 169.6,798.8 184,804.2C189.9,806.5 196.2,810.1 202,812.4C205.6,813.8 209,814.7 211.9,814.2C215.1,813.7 216.8,813 217.6,811.6C218.4,810.3 218.1,808.3 217.7,805.8C216.8,799.7 214.4,790.4 216.6,776.5C218.6,763.8 225.6,755.5 231,749.2C232.6,747.2 234.1,745.4 235.2,743.7C236.1,742.3 236.7,741 236.7,739.7C236.6,735.8 234,733.6 230.7,731.2C224.9,727 217.1,722.4 213.1,710.8C205.3,688.3 212.5,644.9 215.7,625.7C220.2,598 223.4,574.1 228.7,557.5C232.3,546 237.1,537.8 243.8,534C254.2,528.1 258.4,524.4 259.7,520.4C260.5,517.8 260.1,515.1 259.6,511.5C259,507.4 258.1,502.3 258.4,495.2C258.6,488.3 262.3,484.1 265.4,480.2C268.1,476.8 270.4,473.7 268.8,468.6C268.1,466.5 267.3,465 265.9,464C264.4,463 262.3,462.6 259.2,462.5C254.6,462.5 247.9,463.3 238,464.7C232.7,465.5 220.7,467.5 210,473C199.5,478.3 190.1,487 189.5,501.5L189.5,598.9C189.5,599.7 188.8,600.4 188,600.4L117,600.4C116.2,600.4 115.5,599.7 115.5,598.9L115.5,500.2C115.4,497.1 115.5,482.4 115.5,475.4C115.5,473.8 114.6,471.4 113.1,468.7C109.6,462 102.8,453.5 97.4,448.5C95.5,446.7 93.8,445.3 92.5,444.7C92.233,444.567 91.967,444.467 91.7,444.4C91.6,444.4 91.5,444.3 91.4,444.3C90.7,444.7 90.4,445.4 90.4,446.3C90.4,447.6 90.8,449.2 91.5,450.9C92.9,454.3 95.1,458.1 96.8,461.2C98.1,463.4 99.1,465.3 99.3,466.4C101,473.3 97.6,482.2 94.4,488.2C90.1,496.2 87.4,497.4 87.1,510.6C87,516.1 90.7,517.6 94.2,520C98.3,523 102.6,526.9 102.5,537.5L102.5,630C102.2,642.2 93.9,654 84.3,659.2C82.8,660 80.2,662.3 77.7,664C75.7,665.3 73.7,666.2 72.1,666.2C69.1,666.2 66.4,664.6 64.2,662.7C62.3,661.1 60.7,659.2 59.3,658.4C53.6,655 47.7,652.1 43.9,646.1C41.4,642 39.8,636.4 39.9,628.3L39.9,552C39.2,530.3 42.6,523.4 45.3,519.3C46.9,516.9 48.3,515.7 48.3,512.5C48.2,490.6 52.4,484.3 55.7,480.5C57.5,478.3 59.2,477.1 59.2,473.4C59.2,468.4 57.8,465.7 56.1,462.8C53.4,457.9 50,452.6 50.1,437.6C50.2,433.2 51.1,427.3 52.5,422.4C53.5,418.9 54.9,416 56.3,414.4C60,410.3 63.1,407.7 65.7,405.2C68,402.9 69.7,400.8 70.7,397.8C71.2,396.2 71.1,394.5 70.7,392.7C70.3,390.6 69.5,388.3 68.7,385.8C66.3,378 63.7,368.5 69.9,357.4C78.4,342.3 93.1,338.4 109.1,331.8C112.8,330.3 116.3,330.1 118.9,330C118.567,329.933 118.2,329.9 117.8,329.9C113.7,329.6 107.6,329.6 102.4,328.4C98.6,327.6 95.3,326 93.1,323.5C88.7,318.1 82.4,312.7 78.1,310C77.233,309.467 76.467,309.067 75.8,308.8C75.3,308.6 75,308.5 74.7,308.5C73.5,308.7 72.3,309.7 71.1,311.1C68.8,313.5 66.5,316.9 64.3,319.9C62.7,322 61.1,323.8 59.6,324.9C58.3,325.9 57,326.3 55.8,326.2C54.7,326.1 53.3,325.5 51.9,324.5C50.1,323.2 48.1,321.2 46.1,318.9C43.2,315.7 40.2,311.9 37.6,309.2C36,307.5 34.7,306.3 33.6,305.8C12.3,297.9 -1.2,278 0,233.3C1,196.5 10.8,184.1 22.1,175.1C27,171.3 32.2,166.2 37.9,162.2C43.9,157.9 50.4,154.8 57.8,155C62.5,155.1 67.5,157.5 72.2,160.5C78.9,164.8 84.8,170.4 87.7,172C96.3,176.7 109,189.8 112.5,202.3C117.5,220.2 114.5,240.8 114.3,261.4C114.2,272.5 114.3,286.4 115.5,293.7C115.833,295.1 116.133,296.2 116.4,297C116.467,297.067 116.533,297.167 116.6,297.3C116.667,297.233 116.7,297.133 116.7,297Z" style="fill:white;stroke:black;stroke-width:1px;"/>
        <path d="M128.7,514L130.5,486.1L126.5,486.1L128.7,514Z" style="fill:none;stroke:black;stroke-width:2.1px;stroke-linecap:round;stroke-miterlimit:4;"/>
        <path d="M128.5,486.1C128.5,486.1 128.4,475.4 126.6,470.1" style="fill:none;fill-rule:nonzero;stroke:black;stroke-width:6.2px;stroke-linecap:round;stroke-miterlimit:4;"/>
        <path d="M129.3,557.1L129.3,488.3" style="fill:none;fill-rule:nonzero;stroke:black;stroke-width:3.3px;stroke-linecap:round;stroke-miterlimit:4;"/>
        <path d="M142.9,431.5C140.5,431.5 138.6,429.6 138.6,427.2C138.6,424.8 140.5,422.9 142.9,422.9C145.2,422.9 147.1,424.8 147.1,427.2C147.1,429.6 145.2,431.5 142.9,431.5Z" style="fill-rule:nonzero;"/>
        <path d="M149.2,428C148.7,431.4 145.6,433.9 142.1,433.5C138.6,433.1 136.1,429.9 136.5,426.4C137,423 140.1,420.5 143.6,420.9C147.1,421.3 149.6,424.5 149.2,428ZM147.1,427.2C147.1,424.8 145.2,422.9 142.9,422.9C140.5,422.9 138.6,424.8 138.6,427.2C138.6,429.6 140.5,431.5 142.9,431.5C145.2,431.5 147.1,429.6 147.1,427.2Z"/>
        <path d="M125.8,420.3C123.5,420.3 121.5,418.4 121.5,416.1C121.5,413.7 123.5,411.8 125.8,411.8C128.2,411.8 130.1,413.7 130.1,416.1C130.1,418.4 128.2,420.3 125.8,420.3Z" style="fill-rule:nonzero;"/>
        <path d="M125.8,422.4C122.3,422.4 119.5,419.6 119.5,416.1C119.5,412.6 122.3,409.7 125.8,409.7C129.3,409.7 132.2,412.6 132.2,416.1C132.2,419.6 129.3,422.4 125.8,422.4ZM130.1,416.1C130.1,413.7 128.2,411.8 125.8,411.8C123.5,411.8 121.5,413.7 121.5,416.1C121.5,418.4 123.5,420.3 125.8,420.3C128.2,420.3 130.1,418.4 130.1,416.1Z"/>
        <path d="M138.3,823.2C140.6,823.6 142.8,822.1 143.3,819.8C143.7,817.5 142.2,815.2 139.8,814.8C137.5,814.4 135.3,815.9 134.9,818.2C134.4,820.6 136,822.8 138.3,823.2Z" style="fill-rule:nonzero;"/>
        <path d="M145.3,820.2C144.7,823.6 141.4,825.9 137.9,825.2C134.5,824.6 132.2,821.3 132.8,817.9C133.4,814.4 136.7,812.2 140.2,812.8C143.7,813.4 145.9,816.7 145.3,820.2ZM139.8,814.8C137.5,814.4 135.3,815.9 134.9,818.2C134.4,820.6 136,822.8 138.3,823.2C140.6,823.6 142.8,822.1 143.3,819.8C143.7,817.5 142.1,815.3 139.8,814.8Z"/>
        <path d="M136.2,836.3C138.3,835.1 140.9,835.8 142.1,837.9C143.2,839.9 142.5,842.5 140.5,843.7C138.4,844.8 135.8,844.1 134.6,842.1C133.5,840 134.2,837.4 136.2,836.3Z" style="fill-rule:nonzero;"/>
        <path d="M132.8,843.1C131.1,840 132.2,836.2 135.2,834.4C138.3,832.7 142.2,833.8 143.9,836.8C145.6,839.9 144.5,843.7 141.5,845.5C138.4,847.2 134.5,846.1 132.8,843.1ZM142.1,837.9C140.9,835.8 138.3,835.1 136.2,836.3C134.2,837.4 133.5,840 134.6,842.1C135.8,844.1 138.4,844.8 140.5,843.7C142.5,842.5 143.2,839.9 142.1,837.9Z"/>
        <path d="M127.2,472.3C126.9,463.7 117.1,450.1 110.4,434.8C107.5,428 105.4,420.7 105.2,412.8C104.5,378.6 133.3,372.6 133.3,372.6L120.9,357.4C120.9,357.4 102.8,368.1 99.7,410.6C98.4,428.7 125,458 127.2,472.3Z" style="stroke:black;stroke-width:6.2px;stroke-linecap:round;stroke-miterlimit:4;"/>
        <path d="M126.1,354.6C131.9,354.6 136.6,359.2 136.6,365C136.6,370.7 131.9,375.4 126.1,375.4C120.3,375.4 109.4,382.5 109.4,376.7C109.4,371 120.3,354.6 126.1,354.6Z" style="stroke:black;stroke-width:6.2px;stroke-linecap:round;stroke-miterlimit:4;"/>
        <path d="M183.8,557.1C183.9,549.1 183.8,504.6 183.8,499.2L183.8,494.7C183.9,474.1 197.1,472.2 208.8,464.6C216.4,459.7 224.6,455 231.4,452.2" style="fill:none;fill-rule:nonzero;stroke:black;stroke-width:2.5px;stroke-linecap:round;stroke-miterlimit:4;"/>
        <path d="M231.4,452.2C243.7,446.9 258,447.1 269.4,449.5C280.1,451.9 288.7,460.6 288.5,475.2C288.5,487 270.7,485.5 276.2,512.1C280.8,533.9 272.5,531.4 257.8,542.7C249.9,548.8 243.7,555.2 237.2,582.3C235.1,591.5 226.5,660.6 224.3,676.7C222,693.1 226.5,711 240.6,719.9C251.1,726.7 253.7,732 252.8,743.3C252,754.1 234,763 231.4,784.3C229.4,801.3 237.5,806.8 233.3,815.7C228.1,826.8 219,830.5 206.5,830C192.9,829.5 186.1,815.1 170.5,816.8C153.4,818.7 144.9,818.5 144.9,818.5" style="fill:none;fill-rule:nonzero;stroke:black;stroke-width:6.2px;stroke-linecap:round;stroke-miterlimit:4;"/>
        <path d="M162,817.8L139.6,815L139.8,823L162,817.8Z" style="stroke:black;stroke-width:2.1px;stroke-linecap:round;stroke-miterlimit:4;"/>
        <path d="M164.8,832.9C154.6,836.1 140.5,843.7 140.5,843.7L137.4,835.8C137.4,835.8 146.5,835.9 164.8,832.9Z" style="stroke:black;stroke-width:2.1px;stroke-linecap:round;stroke-miterlimit:4;"/>
        <path d="M148.1,837.2C148.1,837.2 156.5,833.9 170.2,832C182.3,830.3 189.4,842.9 204.5,842.7C220.3,842.4 236.5,839.8 244.8,818.5C249.4,806.8 240.8,800.5 242.6,787C245.3,767.1 262.2,761.7 263.6,744.9C264.6,733.6 263.3,721.8 251.6,713.9C239.7,705.9 233.4,699.3 234.8,682C235.3,676 246.7,593.5 249.6,582.3C254.2,564.6 259.1,556.9 267.3,550.5C281.9,539.1 294.7,546.1 288.2,509.5C284,490.5 301.9,488.5 299.9,471.4C297.8,453.8 288.1,441.5 272.8,438.2C263.7,436.1 250.3,434.5 235.4,438.5" style="fill:none;fill-rule:nonzero;stroke:black;stroke-width:6.2px;stroke-linecap:round;stroke-miterlimit:4;"/>
        <path d="M235.4,438.5C226.1,440.6 217.6,451.4 208.1,457.4C195.2,465.5 179.8,471.3 179.6,486.4C179.6,487.4 179.7,491.5 179.7,492L179.7,557.1" style="fill:none;fill-rule:nonzero;stroke:black;stroke-width:2.5px;stroke-linecap:round;stroke-miterlimit:4;"/>
        <path d="M175.5,557.1L175.5,484.8C175.7,466.1 193.8,460.6 207.2,450.1C218.9,441 226.6,427.2 241.7,425.3" style="fill:none;fill-rule:nonzero;stroke:black;stroke-width:2.5px;stroke-linecap:round;stroke-miterlimit:4;"/>
        <path d="M241.7,425.3C256.8,423.1 266.9,423.7 276.6,426.9C287.6,430.4 306.8,437.6 312.1,470.3C315.3,490.1 297.4,494.1 299.8,508.4C303.4,530.3 300.1,545.2 289.3,551.9C272.8,562.2 263.7,554.7 256.3,608.5C252.6,635.1 249.4,652.1 247,666.9C243.1,690.3 244.6,697.3 259.8,707.2C271.6,714.7 274.7,725.5 274.4,740.9C273.9,768.2 257.2,768.2 253,788.8C251.3,797 260.7,807.6 256.3,820.2C236.4,876.3 185.4,840.6 178,862.6" style="fill:none;fill-rule:nonzero;stroke:black;stroke-width:6.2px;stroke-linecap:round;stroke-miterlimit:4;"/>
        <path d="M171.3,557.1L171.3,483.5C171.3,460.6 193,453.6 204.9,443.3C218.1,432 230,415.9 245.6,412.9" style="fill:none;fill-rule:nonzero;stroke:black;stroke-width:2.5px;stroke-linecap:round;stroke-miterlimit:4;"/>
        <path d="M245.6,412.9C258.9,411.3 271.1,412 283.4,416.2C296.2,420.8 321.5,435 323.1,471.2C324.2,499.6 307.2,492.6 312.3,522.2C317.1,549.7 297,561 296.5,581.2" style="fill:none;fill-rule:nonzero;stroke:black;stroke-width:6.2px;stroke-linecap:round;stroke-miterlimit:4;"/>
        <path d="M167.1,557.1C167.1,545.8 167,512.5 167.1,493.9C167.167,489.3 167.167,485.233 167.1,481.7C167,456.5 190.5,449 204.7,434C214.8,423.3 231.4,403.9 248.7,400.4" style="fill:none;fill-rule:nonzero;stroke:black;stroke-width:2.5px;stroke-linecap:round;stroke-miterlimit:4;"/>
        <path d="M244.9,401.4C256.8,397.8 265.3,391.7 271.5,380.8" style="fill:none;fill-rule:nonzero;stroke:black;stroke-width:6.2px;stroke-linecap:round;stroke-miterlimit:4;"/>
        <path d="M162.9,557.1C162.9,545.9 163,512 163,488.2L163,474.4C163.3,454.2 187.2,445.1 206.9,422.8C215.9,412.6 232.9,396.7 245,387" style="fill:none;fill-rule:nonzero;stroke:black;stroke-width:2.5px;stroke-linecap:round;stroke-miterlimit:4;"/>
        <path d="M239.5,392C253.5,382.9 248.2,353.9 241.3,341.9C235.5,331.9 233.5,322.9 241.4,305.7C250.6,285.6 237.1,285.1 241.4,269.6C246.3,251.9 261.5,264.1 265.7,245.9C270.1,227 266.6,213.1 278.5,192.4" style="fill:none;fill-rule:nonzero;stroke:black;stroke-width:6.2px;stroke-linecap:round;stroke-miterlimit:4;"/>
        <path d="M158.8,557.1L158.8,470.1C159.4,448.2 187.7,438.7 208.5,410.2C215.6,400.4 227.6,390.9 234.7,381.2" style="fill:none;fill-rule:nonzero;stroke:black;stroke-width:2.5px;stroke-linecap:round;stroke-miterlimit:4;"/>
        <path d="M229,388C238.9,374.7 234.9,354 225.7,346.1C206.9,329.9 231.5,313.7 198.9,309.5" style="fill:none;fill-rule:nonzero;stroke:black;stroke-width:6.2px;stroke-linecap:round;stroke-miterlimit:4;"/>
        <path d="M154.6,557.1L154.6,472.1L154.6,465.7C154.6,448 178.2,436.1 199.4,409.1C212,393 219.3,386.8 220.4,376.5" style="fill:none;fill-rule:nonzero;stroke:black;stroke-width:2.5px;stroke-linecap:round;stroke-miterlimit:4;"/>
        <path d="M217.9,385.6C235.9,335.5 171.4,350.6 140.8,312.3C130.2,299.1 129.7,280.1 131,264.1C132.2,250 142.8,234.8 143.7,225.4C145.7,202.8 138.3,198.3 134.3,185.9C126.1,160.2 143.9,148.4 120.9,126.3" style="fill:none;fill-rule:nonzero;stroke:black;stroke-width:6.2px;stroke-linecap:round;stroke-miterlimit:4;"/>
        <path d="M150.4,557.1L150.4,460.6C150.6,445.1 173.9,428.9 187.6,412.6C197.4,400.9 201.7,395.6 209.3,376" style="fill:none;fill-rule:nonzero;stroke:black;stroke-width:2.5px;stroke-linecap:round;stroke-miterlimit:4;"/>
        <path d="M207.1,383C225.5,350.9 164.6,354.7 134.3,324C123.4,313 116.9,322.3 106.3,312.3C96.9,303.4 107.6,289.6 89.1,279.3" style="fill:none;fill-rule:nonzero;stroke:black;stroke-width:6.2px;stroke-linecap:round;stroke-miterlimit:4;"/>
        <path d="M146.2,557.1C146.2,541.4 146.3,485.9 146.3,461.3L146.3,457.1C146.3,441.4 167.6,425.9 180.1,412.3C189.2,402.6 190.4,396.6 195.9,378.5" style="fill:none;fill-rule:nonzero;stroke:black;stroke-width:2.5px;stroke-linecap:round;stroke-miterlimit:4;"/>
        <path d="M195.2,380.9C200.4,362.7 170.4,361.3 150.4,348.2C128.4,333.8 115.3,340.8 107,348.2C94.8,359.2 92.7,351.6 83.8,364.2C74.7,377.2 88.4,384.5 83.8,400.9C79.1,417.9 66.3,415.4 64.3,435.1C62.3,455.3 81.2,460.7 79.8,472.7C77.5,492 64.9,487.7 65.4,509.9C65.7,523.5 66.3,528.4 66.3,530.2" style="fill:none;fill-rule:nonzero;stroke:black;stroke-width:6.2px;stroke-linecap:round;stroke-miterlimit:4;"/>
        <path d="M142,557C142.1,537.1 142.1,471.5 142,460.2C142,455.5 139.9,448.3 139.6,442" style="fill:none;fill-rule:nonzero;stroke:black;stroke-width:2.5px;stroke-linecap:round;stroke-miterlimit:4;"/>
        <path d="M140.3,442C140,434.1 139.7,427.1 139.7,427.1" style="fill:none;fill-rule:nonzero;stroke:black;stroke-width:2.1px;stroke-linecap:round;stroke-miterlimit:4;"/>
        <path d="M140.8,450.9C140,446 142.2,440.9 142.2,440.9L139.4,440.3C139.4,440.3 139.7,444.4 140.8,450.9Z" style="stroke:black;stroke-width:2.1px;stroke-linecap:round;stroke-miterlimit:4;"/>
        <path d="M136,461.7L133.4,451.1L131.4,451.7L136,461.7Z" style="stroke:black;stroke-width:2.1px;stroke-linecap:round;stroke-miterlimit:4;"/>
        <path d="M137.8,557.1C137.8,539.5 137.9,489.9 137.9,469.1C137.9,464.2 133.7,457.2 131.5,450.8" style="fill:none;fill-rule:nonzero;stroke:black;stroke-width:2.5px;stroke-linecap:round;stroke-miterlimit:4;"/>
        <path d="M132.2,450.8C131.4,448.5 130.7,446.3 130,444.1C126.5,433.1 117.3,424.3 125.8,416.1" style="fill:none;fill-rule:nonzero;stroke:black;stroke-width:4.2px;stroke-linecap:round;stroke-miterlimit:4;"/>
        <path d="M140.4,447.2L147,428.4C147,428.4 140.2,423.7 138.6,426.6C137.5,428.6 140.4,447.2 140.4,447.2Z" style="stroke:black;stroke-width:2.1px;stroke-linecap:round;stroke-miterlimit:4;"/>
        <path d="M125.8,435.5C124.1,420.3 130.5,418.5 130.5,418.5L120.5,415.6C120.5,415.6 118.8,426 125.8,435.5Z" style="stroke:black;stroke-width:2.1px;stroke-linecap:round;stroke-miterlimit:4;"/>
        <path d="M268.2,380.3C269.9,381.5 272.1,383.3 273.2,384C277.6,378.8 292.8,386.5 292.8,386.5C292.8,386.5 280.7,362.9 270.2,362C271.3,366.8 272.3,373.3 268.2,380.3Z"/>
        <path d="M281,593.3C281.8,588.5 286.3,585.2 291.1,586L298.4,587.2C303.2,588 306.5,592.5 305.7,597.3L292.4,678.4C291.6,683.2 287.1,686.5 282.3,685.7L274.9,684.5C270.1,683.8 266.9,679.2 267.7,674.4L281,593.3Z"/>
        <path d="M90.3,283.6C91.4,282.3 93,279.7 93.6,278.4C88.5,274.1 91.9,265.1 91.9,265.1C91.9,265.1 70.2,280.7 73.7,284.6C80.3,280.9 85.6,280.6 90.3,283.6Z"/>
        <path d="M206.1,314.1C206.7,312.5 208.2,309.8 208.4,308.3C204.3,306.4 207.1,301 207.1,301C207.1,301 184.6,311.7 189,314.3C195.2,313.3 199.5,312.6 206.1,314.1Z"/>
        <path d="M278.1,199.9C276.7,199.2 273.3,199.4 271.9,199C273.1,195.8 265.7,188.2 265.7,188.2C265.7,188.2 289.1,181.5 289.6,186.6C285.9,190.8 279.5,195.9 278.1,199.9Z"/>
        <path d="M293.5,578.3C294.4,578.5 298.7,578.9 299.8,579.1C299.2,585 304.4,591 304.4,591C304.4,591 291.3,591.1 284.3,587.7C288.6,584.8 293,583.7 293.5,578.3Z"/>
        <path d="M121.5,131.4C122.4,130.1 125.1,128.5 126.5,127.6C124.3,123.8 131.3,118.9 131.3,118.9C131.3,118.9 101.3,120.4 103.3,125.2C110,126.7 118.4,127.1 121.5,131.4Z"/>
        <path d="M163.1,262.6C163.1,249.9 173.4,239.6 186.1,239.6C198.8,239.6 209.1,249.9 209.1,262.6L209.1,291.6C209.1,304.2 198.8,314.5 186.1,314.5C173.4,314.5 163.1,304.2 163.1,291.6L163.1,262.6Z"/>
        <path d="M212.3,134.9C208.9,131.6 208.9,126.1 212.3,122.7L217.8,117.3C221.2,113.9 226.7,113.9 230.1,117.3L288.7,175.7C292.1,179 292.1,184.5 288.7,187.9L283.2,193.3C279.8,196.7 274.3,196.7 270.9,193.3L212.3,134.9Z"/>
        <path d="M57.1,543.7C57.1,538.8 61.2,534.7 66.1,534.7L73.2,534.7C78.2,534.7 82.2,538.8 82.2,543.7L82.2,625.6C82.2,630.6 78.2,634.6 73.2,634.6L66.1,634.6C61.2,634.6 57.1,630.6 57.1,625.6L57.1,543.7Z"/>
        <path d="M77.3,535.6C77.3,535.6 67,536 60.9,536.4C62.3,534.7 63.3,533.8 63.2,528.5C63.6,528.5 66.7,528.5 69.4,528.7C69.7,532.7 77.3,535.6 77.3,535.6Z"/>
        <path d="M268.7,322.5C268.7,301.8 285.6,284.9 306.3,284.9C327.1,284.9 344,301.8 344,322.5L344,351.4C344,372.1 327.1,389 306.3,389C285.6,389 268.7,372.1 268.7,351.4L268.7,322.5Z"/>
        <path d="M125.5,900.1C125.5,879.4 142.4,862.6 163.1,862.6C183.9,862.6 200.8,879.4 200.8,900.1L200.8,929C200.8,949.8 183.9,966.6 163.1,966.6C142.4,966.6 125.5,949.8 125.5,929L125.5,900.1Z"/>
        <path d="M182.7,860.5C181.5,859.3 179.6,858.1 177.5,857.1C174.4,861.1 163.7,862.7 163.7,862.7C163.7,862.7 190.5,878.7 189.6,873.7C187.3,871.3 181,865.9 182.7,860.5Z"/>
        <path d="M72.3,59.3C72.3,38.6 89.2,21.8 109.9,21.8C130.7,21.8 147.5,38.6 147.5,59.3L147.5,88.2C147.5,109 130.7,125.8 109.9,125.8C89.2,125.8 72.3,109 72.3,88.2L72.3,59.3Z"/>
        <path d="M19.6,221.9C19.6,201.2 36.4,184.3 57.2,184.3C77.9,184.3 94.8,201.2 94.8,221.9L94.8,250.8C94.8,271.5 77.9,288.4 57.2,288.4C36.4,288.4 19.6,271.5 19.6,250.8L19.6,221.9Z"/>
        <path d="M193.2,380.7C191.8,385.5 191.4,393.9 189,399.3C191.6,395.1 196.4,385.5 197,381.9C197.3,380.6 193.9,379.6 193.2,380.7Z" style="stroke:black;stroke-width:2.1px;stroke-linecap:round;stroke-miterlimit:4;"/>
        <path d="M205.1,382.4C202.7,388.1 202,392.9 197.5,399.9C200.9,395.8 206.8,388.4 209,383.7C209.3,382.4 205.7,381.3 205.1,382.4Z" style="stroke:black;stroke-width:2.1px;stroke-linecap:round;stroke-miterlimit:4;"/>
        <path d="M216.2,383.9C215,389.7 210.6,395.2 205.8,401.1C212.7,394.1 219.2,389.4 219.8,386.2C220.4,385 217.1,382.9 216.2,383.9Z" style="stroke:black;stroke-width:2.1px;stroke-linecap:round;stroke-miterlimit:4;"/>
        <path d="M227.4,386.8C224.6,391.1 219.7,396.9 212.5,405.1C222.3,396.5 226.3,394.8 230.9,388.7C231.6,387.5 228.3,385.8 227.4,386.8Z" style="stroke:black;stroke-width:2.1px;stroke-linecap:round;stroke-miterlimit:4;"/>
        <path d="M238.6,390.1C234.1,392.7 224.1,404.2 215.6,413.4C227,402.2 234.8,397.6 241,393.4C241.7,392.3 239.6,389.3 238.6,390.1Z" style="stroke:black;stroke-width:2.1px;stroke-linecap:round;stroke-miterlimit:4;"/>
        <path d="M245.7,403.3C237,405.6 227.2,409.8 217.6,420.5C225,411.3 238.1,401.5 244.7,399.4C246,399.1 246.9,402.6 245.7,403.3Z" style="stroke:black;stroke-width:2.1px;stroke-linecap:round;stroke-miterlimit:4;"/>
        <path d="M245.6,414.8C239.4,415.6 229.2,420.7 218.4,430.6C225,424.3 236.2,412.1 245.8,410.8C247.1,411 247,414.6 245.6,414.8Z" style="stroke:black;stroke-width:2.1px;stroke-linecap:round;stroke-miterlimit:4;"/>
        <path d="M243,427.1C236.8,428.2 232.5,428.4 221,437C226.8,430.7 236.7,423.5 243.1,423.1C244.4,423.2 244.3,426.8 243,427.1Z" style="stroke:black;stroke-width:2.1px;stroke-linecap:round;stroke-miterlimit:4;"/>
        <path d="M235.5,440.6C229.3,442.1 227.1,442.1 216.1,451.4C221.1,446 228.1,437.9 235.3,436.6C236.6,436.6 236.7,440.2 235.5,440.6Z" style="stroke:black;stroke-width:2.1px;stroke-linecap:round;stroke-miterlimit:4;"/>
        <path d="M231.9,454.2C227.1,456.6 220.8,457.9 209.5,464.2C217.6,458.2 226.4,452.4 230.8,450.2C232.1,450 233.1,453.6 231.9,454.2Z" style="stroke:black;stroke-width:2.1px;stroke-linecap:round;stroke-miterlimit:4;"/>
        <path d="M151.3,418.1C139.8,418.1 130.5,408.9 130.5,397.4C130.5,385.9 139.8,376.6 151.3,376.6C162.8,376.6 172.1,385.9 172.1,397.4C172.1,408.9 162.8,418.1 151.3,418.1Z" style="fill-rule:nonzero;"/>
        <path d="M107.2,849C95.7,849 86.4,839.7 86.4,828.2C86.4,816.7 95.7,807.5 107.2,807.5C118.7,807.5 128,816.7 128,828.2C128,839.7 118.7,849 107.2,849Z" style="fill-rule:nonzero;"/>
        <path d="M128.8,572.6C129.067,573 129.2,573.433 129.2,573.9C129.2,574.433 129.067,574.867 128.8,575.2C128.667,575.333 128.467,575.467 128.2,575.6C128.6,575.8 128.9,576.067 129.1,576.4C129.367,576.733 129.5,577.133 129.5,577.6C129.5,578.133 129.367,578.567 129.1,578.9C128.967,579.167 128.767,579.4 128.5,579.6C128.233,579.8 127.9,579.933 127.5,580C127.167,580.067 126.8,580.1 126.4,580.1L123,580.1C122.7,580.1 122.6,580 122.6,579.7L122.6,572.2C122.6,571.9 122.7,571.7 123,571.7L126.6,571.7C127.667,571.767 128.4,572.067 128.8,572.6ZM124.6,573.2C124.4,573.2 124.2,573.4 124.2,573.6L124.2,574.6C124.2,574.9 124.4,575.1 124.6,575.1L125.9,575.1C126.1,575.1 126.5,575 126.7,575C126.7,575 126.9,575 127.2,574.8C127.4,574.667 127.5,574.433 127.5,574.1C127.5,573.7 127.367,573.433 127.1,573.3C126.833,573.233 126.5,573.2 126.1,573.2L124.6,573.2ZM124.6,576.4C124.3,576.4 124.2,576.6 124.2,576.9L124.2,578.3C124.2,578.5 124.3,578.7 124.6,578.7L126.6,578.7C126.6,578.7 126.9,578.6 127.1,578.5C127.433,578.367 127.6,578.033 127.6,577.5C127.6,577.033 127.433,576.733 127.1,576.6C126.9,576.533 126.6,576.467 126.2,576.4L124.6,576.4Z"/>
        <path d="M134.8,572.5C135.067,572.633 135.333,572.8 135.6,573C135.733,573.2 135.833,573.433 135.9,573.7C136.033,573.967 136.1,574.233 136.1,574.5C136.1,574.9 136,575.267 135.8,575.6C135.6,576 135.3,576.267 134.9,576.4C135.233,576.533 135.467,576.733 135.6,577C135.8,577.267 135.9,577.667 135.9,578.2L135.9,579.5C135.967,579.7 136.067,579.833 136.2,579.9C136.2,580.1 136,580.1 135.8,580.1L134.8,580.1C134.6,580.1 134.4,580 134.3,579.8L134.3,579.7C134.233,579.5 134.2,579.267 134.2,579L134.2,577.9C134.2,577.9 134.1,577.5 134,577.3C133.8,577.167 133.467,577.1 133,577.1L131.8,577.1C131.6,577.1 131.4,577.2 131.4,577.5L131.4,579.7C131.4,580 131.2,580.1 131,580.1L130.2,580.1C130,580.1 129.8,580 129.8,579.7L129.8,572.7C129.8,572.5 130,572.3 130.2,572.3L133.6,572.3C134.133,572.3 134.533,572.367 134.8,572.5ZM131.8,573.6C131.6,573.6 131.4,573.8 131.4,574.1L131.4,575.3C131.4,575.6 131.6,575.8 131.8,575.8L132.8,575.8C133,575.8 133.4,575.7 133.6,575.7C133.6,575.7 133.8,575.7 134,575.6C134.267,575.467 134.4,575.167 134.4,574.7C134.4,574.233 134.267,573.933 134,573.8C133.8,573.667 133.533,573.6 133.2,573.6L131.8,573.6Z"/>
        <path d="M138.3,579.7C138.3,580 138.1,580.1 137.9,580.1L137.1,580.1C136.8,580.1 136.7,580 136.7,579.7L136.7,572.7C136.7,572.5 136.8,572.3 137.1,572.3L137.9,572.3C138.1,572.3 138.3,572.5 138.3,572.7L138.3,579.7Z" style="fill-rule:nonzero;"/>
        <path d="M138.9,572.7C138.9,572.5 139,572.3 139.3,572.3L140.1,572.3C140.3,572.3 140.5,572.5 140.5,572.7L140.5,578.3C140.5,578.5 140.7,578.7 140.9,578.7L144,578.7C144.3,578.7 144.4,578.9 144.4,579.1L144.4,579.7C144.4,580 144.3,580.1 144,580.1L139.3,580.1C139,580.1 138.9,580 138.9,579.7L138.9,572.7Z" style="fill-rule:nonzero;"/>
        <path d="M144.9,572.7C144.9,572.5 145.1,572.3 145.3,572.3L146.1,572.3C146.4,572.3 146.5,572.5 146.5,572.7L146.5,578.3C146.5,578.5 146.7,578.7 147,578.7L150.1,578.7C150.3,578.7 150.5,578.9 150.5,579.1L150.5,579.7C150.5,580 150.3,580.1 150.1,580.1L145.3,580.1C145.1,580.1 144.9,580 144.9,579.7L144.9,572.7Z" style="fill-rule:nonzero;"/>
        <path d="M152.4,579.7C152.4,580 152.3,580.1 152,580.1L151.2,580.1C151,580.1 150.8,580 150.8,579.7L150.8,572.7C150.8,572.5 151,572.3 151.2,572.3L152,572.3C152.3,572.3 152.4,572.5 152.4,572.7L152.4,579.7Z" style="fill-rule:nonzero;"/>
        <path d="M155.4,572.7C155.5,572.5 155.8,572.3 156,572.3L157,572.3C157.3,572.3 157.5,572.5 157.6,572.7L160.1,579.8C160.167,580 160.067,580.1 159.8,580.1L158.9,580.1C158.567,580.1 158.367,580 158.3,579.8L158.1,578.9C158,578.7 157.7,578.5 157.5,578.5L155.4,578.5C155.2,578.5 155,578.7 154.9,578.9L154.6,579.8C154.5,580 154.3,580.1 154.1,580.1L153.2,580.1C152.867,580.1 152.767,580 152.9,579.8L155.4,572.7ZM155.6,576.8C155.5,577 155.6,577.2 155.8,577.2L157,577.2C157.3,577.2 157.4,577 157.3,576.8L156.6,574.5C156.467,574.233 156.367,574.233 156.3,574.5L155.6,576.8Z"/>
        <path d="M160.6,572.7C160.6,572.5 160.7,572.3 161,572.3L161.9,572.3C162.1,572.3 162.4,572.4 162.5,572.6L165.2,577.4C165.3,577.6 165.4,577.6 165.4,577.4L165.4,572.7C165.4,572.5 165.6,572.3 165.8,572.3L166.5,572.3C166.8,572.3 167,572.5 167,572.7L167,579.7C167,580 166.8,580.1 166.5,580.1L165.7,580.1C165.5,580.1 165.2,580 165.1,579.8L162.3,574.9C162.2,574.7 162.1,574.8 162.1,575L162.1,579.7C162.1,580 161.9,580.1 161.7,580.1L161,580.1C160.7,580.1 160.6,580 160.6,579.7L160.6,572.7Z" style="fill-rule:nonzero;"/>
        <path d="M173.3,572.3C173.6,572.3 173.7,572.5 173.7,572.7L173.7,573.3C173.6,573.5 173.4,573.7 173.2,573.7L171.7,573.7C171.5,573.7 171.3,573.9 171.3,574.1L171.3,579.7C171.3,580 171.1,580.1 170.9,580.1L170,580.1C169.8,580.1 169.6,580 169.6,579.7L169.6,574.1C169.6,573.9 169.4,573.7 169.2,573.7L167.7,573.7C167.4,573.7 167.2,573.5 167.2,573.3L167.2,572.7C167.2,572.5 167.4,572.3 167.7,572.3L173.3,572.3Z" style="fill-rule:nonzero;"/>
        <path d="M149.9,586.7C150.1,586.7 150.4,586.9 150.4,587.1C150.4,587.1 150.5,587.4 150.6,587.5C150.867,587.833 151.333,588 152,588C152.4,588 152.733,587.967 153,587.9C153.467,587.767 153.7,587.467 153.7,587C153.7,586.733 153.6,586.533 153.4,586.4C153.133,586.267 152.767,586.133 152.3,586L151.8,585.9C151.6,585.9 151.2,585.8 151,585.7C151,585.7 150,585.4 149.7,585.2C149.167,584.867 148.9,584.3 148.9,583.5C148.9,582.833 149.167,582.267 149.7,581.8C150.167,581.333 150.933,581.1 152,581.1C152.8,581.1 153.5,581.3 154.1,581.7C154.7,582.167 155,582.8 155,583.6L153.9,583.6C153.6,583.6 153.4,583.5 153.3,583.2C153.3,583.2 153.2,582.8 152.8,582.6C152.533,582.467 152.2,582.4 151.8,582.4C151.4,582.4 151.067,582.5 150.8,582.7C150.533,582.9 150.4,583.133 150.4,583.4C150.4,583.667 150.533,583.867 150.8,584C150.933,584.133 151.267,584.267 151.8,584.4L152.8,584.6C153,584.7 153.4,584.7 153.6,584.8C153.6,584.8 154.3,585 154.6,585.3C155.067,585.633 155.3,586.167 155.3,586.9C155.3,587.567 155.033,588.167 154.5,588.7C153.9,589.167 153.1,589.4 152.1,589.4C151.033,589.4 150.2,589.167 149.6,588.7C149.067,588.233 148.8,587.567 148.8,586.7L149.9,586.7Z" style="fill-rule:nonzero;"/>
        <path d="M161.8,588.5C161.2,589.1 160.333,589.4 159.2,589.4C158.067,589.4 157.2,589.1 156.6,588.5C155.8,587.7 155.4,586.6 155.4,585.2C155.4,583.8 155.8,582.733 156.6,582C157.2,581.4 158.067,581.1 159.2,581.1C160.333,581.1 161.2,581.4 161.8,582C162.6,582.733 163,583.8 163,585.2C163,586.6 162.6,587.7 161.8,588.5ZM160.8,587.3C161.2,586.833 161.4,586.133 161.4,585.2C161.4,584.333 161.2,583.667 160.8,583.2C160.4,582.733 159.867,582.5 159.2,582.5C158.6,582.5 158.1,582.733 157.7,583.2C157.3,583.667 157.1,584.333 157.1,585.2C157.1,586.133 157.3,586.833 157.7,587.3C158.1,587.767 158.6,588 159.2,588C159.867,588 160.4,587.767 160.8,587.3Z"/>
        <path d="M163.4,581.7C163.4,581.5 163.6,581.3 163.8,581.3L164.6,581.3C164.9,581.3 165,581.5 165,581.7L165,587.3C165,587.6 165.2,587.8 165.5,587.8L168.6,587.8C168.8,587.8 169,587.9 169,588.2L169,588.8C169,589 168.8,589.2 168.6,589.2L163.8,589.2C163.6,589.2 163.4,589 163.4,588.8L163.4,581.7Z" style="fill-rule:nonzero;"/>
        <path d="M175.1,582.3C175.1,582.5 174.9,582.7 174.7,582.7L171.3,582.7C171.1,582.7 170.9,582.9 170.9,583.1L170.9,584C170.9,584.2 171.1,584.4 171.3,584.4L174.3,584.4C174.6,584.4 174.8,584.6 174.8,584.8L174.8,585.3C174.8,585.5 174.6,585.7 174.3,585.7L171.3,585.7C171.1,585.7 170.9,585.9 170.9,586.1L170.9,587.3C170.9,587.6 171.1,587.8 171.3,587.8L174.4,587.8C174.667,587.8 174.867,587.9 175,588.1L175.2,588.8C175.3,589 175.2,589.2 175,589.2L169.7,589.2C169.5,589.2 169.3,589 169.3,588.8L169.3,581.7C169.3,581.5 169.5,581.3 169.7,581.3L174.7,581.3C174.9,581.3 175.1,581.5 175.1,581.7L175.1,582.3Z" style="fill-rule:nonzero;"/>
        <path d="M176.1,576.4L176.6,578.4L176.7,578.4L177.9,575.4C177.833,575.333 177.767,575.267 177.7,575.2L176.5,575.6L176.5,575.8C176.5,576.1 176.3,576.3 176.1,576.4Z" style="fill-rule:nonzero;"/>
        <path d="M180.1,574.9L179,574.9C178.933,575.167 178.833,575.333 178.7,575.4L179.6,578.3L179.7,578.3L180.6,575.5C180.4,575.4 180.2,575.2 180.1,574.9Z" style="fill-rule:nonzero;"/>
        <path d="M177,581.9C176.933,581.567 176.867,581.233 176.8,580.9C176.7,580.5 176.7,580.2 176.6,579.9C176.3,579.9 176.1,579.7 176,579.4L175.2,579.6C175.333,580.467 175.433,581.433 175.5,582.5L176.6,582.5C176.6,582.2 176.8,582 177,581.9Z" style="fill-rule:nonzero;"/>
        <path d="M177,578.5C177.133,578.633 177.233,578.8 177.3,579L178.9,578.9C179,578.6 179.1,578.5 179.3,578.3L178.4,575.5L178.2,575.5L177,578.5Z" style="fill-rule:nonzero;"/>
        <path d="M178.3,584.4C178.433,584.4 178.6,584.433 178.8,584.5L179.2,583.1C179.067,582.967 178.967,582.8 178.9,582.6L178,582.7C178,582.9 177.8,583.1 177.6,583.2L177.9,584.5C178.033,584.433 178.167,584.4 178.3,584.4Z" style="fill-rule:nonzero;"/>
        <path d="M180.4,579.1C180.267,579.367 180.067,579.567 179.8,579.7L179.8,581.8C180,581.8 180.2,582 180.3,582.2L181.2,582.1L181.2,581.3C181.1,580.3 181.1,579.7 181.1,579.1L180.4,579.1Z" style="fill-rule:nonzero;"/>
        <path d="M177.9,574.2C177.967,574.133 178.1,574.1 178.3,574.1C178.4,573.2 178.5,572.3 178.6,571.6C178.4,571.533 178.233,571.433 178.1,571.3L176.8,572.2C176.867,572.267 176.9,572.4 176.9,572.6C176.9,572.8 176.833,572.967 176.7,573.1L177.9,574.2Z" style="fill-rule:nonzero;"/>
        <path d="M177.3,581.8C177.6,581.8 177.9,582.1 178,582.4L179,582.4C179,582.267 179.033,582.167 179.1,582.1L176.9,579.8C177,580.5 177.2,581.3 177.3,581.8Z" style="fill-rule:nonzero;"/>
        <path d="M183.6,570C183.133,569.867 182.767,569.7 182.5,569.5L182.4,570.1C183,570.2 183.4,570.7 183.4,571.4L183.4,571.6L184.3,571.8C184.3,571.333 184.267,570.933 184.2,570.6C184.2,570.6 184.1,570.2 183.6,570Z" style="fill-rule:nonzero;"/>
        <path d="M175.3,570.5C175.5,570.367 175.7,570.2 175.9,570L175.7,569.3L175.6,569.3C175.3,569.3 175.1,569.1 175.1,568.8C175.1,568.5 175.3,568.2 175.6,568.2C175.9,568.2 176.2,568.5 176.2,568.8C176.133,568.933 176.067,569.067 176,569.2L176.2,569.8L177.5,568.5L177.3,568.1C177.167,568.167 177.067,568.2 177,568.2C176.6,568.2 176.2,567.9 176.2,567.5C176.2,567.1 176.6,566.7 177,566.7C177.4,566.7 177.7,567.1 177.7,567.5C177.7,567.7 177.633,567.867 177.5,568L177.7,568.3C178.033,568.1 178.4,567.933 178.8,567.8L178.8,567.5L178.7,567.5C178.2,567.5 177.8,567.1 177.8,566.6C177.8,566.1 178.2,565.7 178.7,565.7C179.2,565.7 179.6,566.1 179.6,566.6C179.6,566.9 179.3,567.3 179,567.4L179.1,567.7C179.433,567.633 179.8,567.6 180.2,567.6C180.267,567.667 180.333,567.7 180.4,567.7L180.4,567.2C180,567.1 179.7,566.7 179.7,566.2C179.7,565.6 180.2,565.1 180.8,565.1C181.4,565.1 181.9,565.6 181.9,566.2C181.9,566.8 181.4,567.3 180.8,567.3L180.7,567.3L180.6,567.8C181,567.9 181.3,568.2 181.7,568.5C181.9,568.633 182.1,568.767 182.3,568.9L182.8,567.7C182.4,567.5 182.1,567.1 182.1,566.6C182.1,565.9 182.6,565.3 183.3,565.3C184,565.3 184.6,565.9 184.6,566.6C184.6,567.3 184,567.8 183.3,567.8L183.1,567.8L182.6,569C182.867,569.2 183.2,569.4 183.6,569.6C183.6,569.6 183.9,569.7 184.1,569C184.3,568.3 185,567.8 184.9,566.8C184.9,566.8 184.8,564.5 183.7,564.5C182.3,564.5 182,565.4 182,565.4C182,565.4 181.7,564.5 180.8,564.5C180.1,564.5 179.7,565.4 179.7,565.4C179.7,565.4 179.2,564.9 178.5,565.1C177.6,565.3 177.4,566.2 177.4,566.2C177.4,566.2 177,566 176.3,566.3C175.8,566.6 175.6,567.2 175.7,567.6C175.7,567.6 174.7,567.7 174.5,568.9C174.5,569.4 174.6,569.8 174.7,570.2C174.9,570.8 175.3,570.5 175.3,570.5Z" style="fill-rule:nonzero;"/>
        <path d="M179.3,586.4C179.3,585.8 178.9,585.3 178.3,585.3C177.7,585.3 177.3,585.8 177.3,586.4C177.3,586.9 177.7,587.4 178.3,587.4C178.9,587.4 179.3,586.9 179.3,586.4Z" style="fill-rule:nonzero;"/>
        <path d="M175.7,575.1L175.8,573.5C175.6,573.433 175.433,573.333 175.3,573.2L174.1,574.3C174.167,574.9 174.3,575.533 174.5,576.2L175.1,576L175.1,575.8C175.1,575.4 175.3,575.1 175.7,575.1Z" style="fill-rule:nonzero;"/>
        <path d="M177.7,584.5L177.3,583.3C176.9,583.3 176.7,583 176.6,582.7L175.5,582.8C175.5,583.867 175.4,585.067 175.2,586.4L175.2,586.6L176.4,586.5L176.4,586.4C176.4,585.5 176.9,584.8 177.7,584.5Z" style="fill-rule:nonzero;"/>
        <path d="M175.2,579.3L175.9,579.2C175.9,578.9 176.1,578.6 176.3,578.5L175.8,576.5C175.6,576.5 175.3,576.4 175.2,576.2L174.6,576.5C174.8,577.367 175,578.267 175.2,579.2L175.2,579.3Z" style="fill-rule:nonzero;"/>
        <path d="M181.8,575C181.7,575.3 181.4,575.6 181,575.6L180.9,575.6L180,578.3C180.2,578.4 180.3,578.6 180.4,578.8L181.1,578.8C181.2,578.4 181.3,578 181.5,577.5C181.8,576.9 182.4,576.2 183,575.2L181.8,575Z" style="fill-rule:nonzero;"/>
        <path d="M183.4,571.8C183.2,572.3 182.7,572.6 182.2,572.6L181.9,572.6L181.4,573.9C181.7,574 181.9,574.3 181.9,574.7L183.2,575C183.7,574.1 184.2,573.2 184.3,572.1L183.4,571.8Z" style="fill-rule:nonzero;"/>
        <path d="M180.2,586.3L181.6,586.2L181.6,586C181.5,583.9 181.3,583.4 181.2,582.4L180.4,582.5C180.4,582.9 180.1,583.2 179.7,583.2L179.5,583.2L179,584.6C179.7,584.9 180.2,585.5 180.2,586.3Z" style="fill-rule:nonzero;"/>
        <path d="M179.5,581.8L179.5,579.7C179.2,579.6 179,579.4 179,579.1L177.3,579.2C177.3,579.4 177.267,579.533 177.2,579.6L179.3,581.9C179.367,581.833 179.433,581.8 179.5,581.8Z" style="fill-rule:nonzero;"/>
        <path d="M176,575.1C176.133,575.1 176.267,575.2 176.4,575.4L177.6,574.9L177.6,574.8C177.6,574.667 177.633,574.533 177.7,574.4L176.5,573.3C176.367,573.367 176.2,573.433 176,573.5L176,575.1Z" style="fill-rule:nonzero;"/>
        <path d="M178.2,588.3C177.3,588.2 176.6,587.6 176.4,586.7L175.1,586.9C175.1,589.3 177.2,589.7 178.2,589.8L178.2,588.3Z" style="fill-rule:nonzero;"/>
        <path d="M180.2,586.6C180.1,587.5 179.4,588.2 178.4,588.3L178.4,589.8C179.4,589.7 181.4,588.8 181.5,586.5L180.2,586.6Z" style="fill-rule:nonzero;"/>
        <path d="M175.2,573C175.133,572.867 175.1,572.733 175.1,572.6C175.1,572.1 175.4,571.7 175.9,571.7L175.9,570.5C175.567,570.9 175.267,571.167 175,571.3C174.6,571.5 174.3,572 174.3,572.1C174.1,572.6 173.9,573.2 174,574L175.2,573Z" style="fill-rule:nonzero;"/>
        <path d="M182.1,570.1L182.2,569.3C181.933,569.1 181.7,568.933 181.5,568.8C181.3,568.6 181.1,568.467 180.9,568.4L181.9,570.1L182.1,570.1Z" style="fill-rule:nonzero;"/>
        <path d="M180.1,568C179.767,568 179.433,568.033 179.1,568.1L179,569.5C179.5,569.5 179.9,570 179.9,570.5L179.9,570.6L181,570.9C181.1,570.6 181.3,570.4 181.6,570.2L180.5,568.1C180.367,568.1 180.233,568.067 180.1,568Z" style="fill-rule:nonzero;"/>
        <path d="M179.9,570.9C179.767,571.1 179.633,571.267 179.5,571.4L180.7,573.8L181.2,573.8L181.6,572.5C181.2,572.3 180.9,571.9 180.9,571.4L180.9,571.2L179.9,570.9Z" style="fill-rule:nonzero;"/>
        <path d="M178.5,574.1C178.8,574.2 179,574.4 179,574.7L180.1,574.7C180.1,574.4 180.2,574.1 180.5,573.9L179.2,571.5C179.133,571.567 179.033,571.6 178.9,571.6C178.8,572.4 178.6,573.4 178.5,574.1Z" style="fill-rule:nonzero;"/>
        <path d="M176.1,571.7L176.2,571.7L177.1,569.4C176.767,569.733 176.467,570.033 176.2,570.3L176.1,571.7Z" style="fill-rule:nonzero;"/>
        <path d="M176.4,571.8C176.467,571.867 176.533,571.9 176.6,571.9L177.9,571C177.833,570.867 177.8,570.7 177.8,570.5C177.8,570 178.2,569.5 178.8,569.4L178.8,568.2C178.3,568.4 177.9,568.6 177.7,568.9L176.4,571.8Z" style="fill-rule:nonzero;"/>
        <path d="M160.2,586.5C160.467,586.233 160.6,585.8 160.6,585.2C160.6,584.667 160.467,584.233 160.2,583.9C159.933,583.633 159.6,583.5 159.2,583.5C158.8,583.5 158.5,583.633 158.3,583.9C158.033,584.233 157.9,584.667 157.9,585.2C157.9,585.8 158.033,586.233 158.3,586.5C158.5,586.833 158.8,587 159.2,587C159.6,587 159.933,586.833 160.2,586.5Z" style="fill-rule:nonzero;"/>
    </g>
</svg>
